<?xml version="1.0" encoding="UTF-8" standalone="no"?>
<svg
   xmlns:dc="http://purl.org/dc/elements/1.1/"
   xmlns:cc="http://creativecommons.org/ns#"
   xmlns:rdf="http://www.w3.org/1999/02/22-rdf-syntax-ns#"
   xmlns:svg="http://www.w3.org/2000/svg"
   xmlns="http://www.w3.org/2000/svg"
   version="1.1"
   id="svg2"
   viewBox="0 0 338.61039 341.91126"
   height="96.494957mm"
   width="95.563377mm">
  <defs
     id="defs4" />
  <metadata
     id="metadata7">
    <rdf:RDF>
      <cc:Work
         rdf:about="">
        <dc:format>image/svg+xml</dc:format>
        <dc:type
           rdf:resource="http://purl.org/dc/dcmitype/StillImage" />
        <dc:title></dc:title>
      </cc:Work>
    </rdf:RDF>
  </metadata>
  <g
     transform="translate(-201.38962,-360.33269)"
     id="layer1">
    <path
       id="path3347"
       d="m 317.92784,672.04318 -60.19718,-30.17862 -19.34515,-35.06368 c -10.63983,-19.28502 -23.31657,-42.39511 -28.17052,-51.35576 l -8.82537,-16.29208 13.5993,-54.18953 c 7.47962,-29.80424 14.05758,-54.64138 14.61769,-55.19363 1.51525,-1.49398 23.85309,-14.00842 41.63978,-23.32806 8.59573,-4.50388 25.47236,-13.64936 37.50361,-20.32329 29.38115,-16.2982 46.16896,-24.80261 50.78183,-25.72519 2.84127,-0.56825 15.30287,2.78579 48.57497,13.07396 24.6143,7.61107 45.04725,14.13229 45.40656,14.49161 2.42518,2.42517 -3.58526,1.08524 -24.28827,-5.41469 -51.7464,-16.24631 -64.97098,-20.1861 -67.75137,-20.1841 -2.74928,0.002 -16.58576,7.23363 -78.97372,41.27568 -14.78125,8.06541 -31.4401,17.00797 -37.01968,19.87237 -5.57957,2.8644 -11.03261,5.88774 -12.11786,6.71851 -1.26853,0.97109 -6.83315,20.70563 -15.58202,55.26053 l -13.60882,53.75 17.04927,30.625 c 9.37711,16.84375 21.73766,39.3867 27.4679,50.09546 l 10.41862,19.47045 59.19975,29.59205 c 32.55988,16.27562 59.91884,29.59204 60.79771,29.59204 0.87888,0 8.8217,-11.95313 17.65073,-26.5625 27.84157,-46.06945 24.50056,-41.58663 30.85956,-41.40598 18.12431,0.51489 54.59225,2.07442 56.41459,2.41253 1.18511,0.21989 7.0664,0.51791 13.06955,0.6623 8.25985,0.19865 11.15061,-0.16242 11.88421,-1.48442 0.94088,-1.69553 26.64778,-96.81105 27.47778,-101.66777 0.33808,-1.97832 -0.95727,-2.84803 -7.08629,-4.75777 -11.73609,-3.65685 -36.41919,-11.20202 -64.375,-19.67821 -14.09375,-4.27324 -26.11116,-8.22725 -26.70536,-8.78672 -0.92884,-0.87452 21.01621,-103.43733 22.44027,-104.87729 2.47243,-2.50002 1.12638,6.16354 -5.66885,36.48654 -15.6199,69.70219 -14.9034,65.91414 -12.68189,67.04766 1.09495,0.55872 9.02208,3.11158 17.61583,5.67304 14.45971,4.30988 26.72276,8.06061 65.3125,19.97627 8.07812,2.49434 14.6875,5.11145 14.6875,5.81577 0,1.56132 -25.60936,97.74653 -27.81693,104.47649 l -1.57287,4.79506 -17.4926,-0.44327 c -9.62092,-0.24382 -17.77385,-0.60496 -18.1176,-0.80254 -0.34375,-0.1976 -12.15625,-0.73982 -26.25,-1.20494 l -25.625,-0.84568 -20.625,34.41267 c -12.45236,20.77668 -21.36796,34.40388 -22.5,34.39051 -1.03125,-0.0125 -28.96372,-13.60254 -62.07216,-30.20078 z"
       style="fill:#000000" />
  </g>
</svg>
