<?xml version="1.0" encoding="UTF-8" standalone="no"?>
<!-- Created with Inkscape (http://www.inkscape.org/) -->

<svg
   xmlns:dc="http://purl.org/dc/elements/1.1/"
   xmlns:cc="http://creativecommons.org/ns#"
   xmlns:rdf="http://www.w3.org/1999/02/22-rdf-syntax-ns#"
   xmlns:svg="http://www.w3.org/2000/svg"
   xmlns="http://www.w3.org/2000/svg"
   xmlns:sodipodi="http://sodipodi.sourceforge.net/DTD/sodipodi-0.dtd"
   xmlns:inkscape="http://www.inkscape.org/namespaces/inkscape"
   width="7.1819358mm"
   height="7.0024314mm"
   viewBox="0 0 25.447804 24.811765"
   id="svg2"
   version="1.1"
   inkscape:version="0.91 r13725"
   sodipodi:docname="game.svg">
  <defs
     id="defs4" />
  <sodipodi:namedview
     id="base"
     pagecolor="#ffffff"
     bordercolor="#666666"
     borderopacity="1.0"
     inkscape:pageopacity="0"
     inkscape:pageshadow="2"
     inkscape:zoom="23.34737"
     inkscape:cx="12.721701"
     inkscape:cy="11.882077"
     inkscape:document-units="px"
     inkscape:current-layer="layer1"
     showgrid="false"
     fit-margin-top="0"
     fit-margin-left="0"
     fit-margin-right="0"
     fit-margin-bottom="0"
     inkscape:window-width="1215"
     inkscape:window-height="776"
     inkscape:window-x="65"
     inkscape:window-y="24"
     inkscape:window-maximized="1" />
  <metadata
     id="metadata7">
    <rdf:RDF>
      <cc:Work
         rdf:about="">
        <dc:format>image/svg+xml</dc:format>
        <dc:type
           rdf:resource="http://purl.org/dc/dcmitype/StillImage" />
        <dc:title></dc:title>
      </cc:Work>
    </rdf:RDF>
  </metadata>
  <g
     inkscape:label="Layer 1"
     inkscape:groupmode="layer"
     id="layer1"
     transform="translate(-1219.2783,-1207.4324)">
    <path
       style="fill:#000000"
       d="m 1221.5277,1232.0412 c -0.4654,-0.246 -1.2542,-1.1187 -1.5644,-1.7309 -0.5409,-1.0674 -0.6889,-1.703 -0.6849,-2.9407 0.01,-2.736 0.9149,-5.6198 2.4735,-7.8745 0.6763,-0.9782 1.9036,-2.1394 2.7329,-2.5857 0.6062,-0.3263 0.7306,-0.3553 1.5233,-0.3555 1.1112,-2e-4 1.6095,0.2367 2.9951,1.4243 1.377,1.1801 1.8818,1.4191 2.9968,1.4191 1.1151,0 1.6199,-0.239 2.9968,-1.4191 1.3856,-1.1876 1.8839,-1.4245 2.9951,-1.4243 0.7928,2e-4 0.9171,0.029 1.5234,0.3555 2.3316,1.2548 4.4103,4.6918 5.0363,8.3275 0.2509,1.4568 0.229,3.141 -0.051,3.9517 -0.3352,0.9696 -0.6478,1.5321 -1.1818,2.1259 -0.6082,0.6765 -1.0969,0.9298 -1.7934,0.9297 -0.922,-1e-4 -1.5736,-0.3949 -3.1862,-1.9302 -1.5079,-1.4356 -2.5385,-2.1897 -3.4742,-2.5419 -1.7914,-0.6744 -3.938,-0.6744 -5.7293,0 -0.9358,0.3522 -1.9664,1.1063 -3.4742,2.5419 -1.6302,1.552 -2.265,1.9332 -3.2076,1.9257 -0.3466,0 -0.6979,-0.078 -0.9259,-0.1985 z m 17.0839,-5.6124 c 0.4476,-0.2981 0.7398,-0.8835 0.6485,-1.2991 -0.037,-0.1711 -0.2255,-0.4683 -0.4177,-0.6605 -0.3038,-0.3038 -0.415,-0.3495 -0.8505,-0.3495 -0.4381,0 -0.5461,0.045 -0.8599,0.3589 -0.6204,0.6204 -0.4943,1.5084 0.2815,1.9814 0.4257,0.2596 0.7752,0.2505 1.1981,-0.031 z m -11.5879,-1.0359 0,-0.9611 0.9902,-0.029 0.9902,-0.029 0.029,-0.9901 0.029,-0.9902 -1.0192,0 -1.0193,0 0,-1.0156 0,-1.0156 -1.0156,0 -1.0155,0 0,1.0156 0,1.0156 -1.0193,0 -1.0192,0 0.029,0.9902 0.029,0.9901 0.9902,0.029 0.9902,0.029 0,0.9611 0,0.9611 1.0155,0 1.0156,0 0,-0.9611 z m 9.5559,-0.9226 c 0.6435,-0.3328 0.8741,-1.1324 0.5024,-1.742 -0.4971,-0.8153 -1.5631,-0.8361 -2.1288,-0.042 -0.7297,1.0248 0.4955,2.3684 1.6264,1.7836 z m 4.0487,-0.01 c 0.6796,-0.4014 0.8235,-1.3141 0.301,-1.9091 -0.5211,-0.5935 -1.2471,-0.615 -1.8086,-0.054 -0.4021,0.4022 -0.4915,0.8767 -0.2578,1.3693 0.3245,0.6837 1.1455,0.9596 1.7654,0.5934 z m -1.8672,-2.1178 c 0.6594,-0.5029 0.6725,-1.3856 0.029,-1.9274 -0.3959,-0.3331 -0.7051,-0.4051 -1.133,-0.2639 -0.9495,0.3134 -1.2167,1.3933 -0.5176,2.0923 0.2998,0.2999 0.421,0.3518 0.8211,0.3518 0.3437,0 0.5582,-0.068 0.8008,-0.2528 z m -7.3782,-5.3251 c -0.2381,-0.238 -0.2969,-0.3852 -0.2969,-0.7432 0,-1.5717 1.2047,-3.2823 2.8725,-4.0788 1.0541,-0.5034 1.7489,-0.6563 3.5256,-0.7757 2.5855,-0.1739 3.5327,-0.5928 4.1548,-1.8377 0.1726,-0.3453 0.3137,-0.7181 0.3137,-0.8283 0,-0.4046 0.2477,-1.0103 0.4736,-1.1583 0.5734,-0.3757 1.3645,-0.069 1.508,0.5843 0.097,0.4426 -0.1211,1.3943 -0.5058,2.2049 -0.6535,1.3771 -1.8494,2.3189 -3.4428,2.7112 -0.3837,0.094 -1.357,0.2109 -2.163,0.2588 -1.7256,0.1025 -2.6698,0.3456 -3.4764,0.895 -0.6681,0.4551 -1.0806,1.0191 -1.2389,1.6937 -0.1977,0.8429 -0.3102,1.0691 -0.6088,1.2235 -0.4409,0.228 -0.7843,0.182 -1.1156,-0.1494 z"
       id="path3410"
       inkscape:connector-curvature="0" />
  </g>
</svg>
