<?xml version="1.0" encoding="UTF-8" standalone="no"?>
<svg
   xmlns:dc="http://purl.org/dc/elements/1.1/"
   xmlns:cc="http://creativecommons.org/ns#"
   xmlns:rdf="http://www.w3.org/1999/02/22-rdf-syntax-ns#"
   xmlns:svg="http://www.w3.org/2000/svg"
   xmlns="http://www.w3.org/2000/svg"
   version="1.1"
   id="svg3412"
   viewBox="0 0 511.7197 511.35464"
   height="144.31564mm"
   width="144.41867mm">
  <defs
     id="defs3414" />
  <metadata
     id="metadata3417">
    <rdf:RDF>
      <cc:Work
         rdf:about="">
        <dc:format>image/svg+xml</dc:format>
        <dc:type
           rdf:resource="http://purl.org/dc/dcmitype/StillImage" />
        <dc:title></dc:title>
      </cc:Work>
    </rdf:RDF>
  </metadata>
  <g
     transform="translate(-524,-630.85818)"
     id="layer1">
    <path
       id="path3431"
       d="m 758,1141.6553 c -14.40456,-1.4658 -36.76475,-5.2761 -39.23255,-6.6855 -1.70575,-0.9741 21.69083,-30.2961 38.55701,-48.3218 29.73073,-31.7749 69.75861,-61.6778 107.92711,-80.6271 l 11.75158,-5.8343 2.74842,1.7948 c 1.51164,0.9871 5.49217,3.0892 8.84564,4.6713 l 6.09721,2.8766 0.64679,8.3093 c 1.08085,13.8855 0.73049,36.3828 -0.84469,54.2392 -1.49453,16.9422 -4.97827,41.0769 -6.51131,45.1091 -0.60278,1.5854 -4.15487,3.4549 -13.65002,7.184 -20.02147,7.8633 -38.22079,12.6907 -59.78986,15.8594 -12.189,1.7906 -44.86113,2.614 -56.54533,1.425 z m -94.66912,-27.4127 c -23.83636,-12.3869 -41.89326,-25.3012 -60.13795,-43.0106 l -10.30706,-10.0048 0.63855,-6.5396 c 4.45545,-45.6298 16.99479,-90.24206 37.15005,-132.1719 l 6.55289,-13.63224 8.13632,0.48539 c 9.39181,0.56028 18.90202,-1.30164 26.617,-5.21111 l 4.96282,-2.51485 9.77825,6.30402 c 14.77725,9.52686 26.25968,15.86101 46.44757,25.62226 34.11903,16.49722 65.05489,26.88299 103.2548,34.66464 6.55827,1.33598 12.03969,2.54462 12.18094,2.68587 0.14125,0.14125 -5.41011,3.3527 -12.33635,7.13655 -58.30463,31.85227 -110.9531,79.26077 -148.63517,133.84177 -4.10306,5.9431 -7.39549,9.7417 -8.43241,9.7288 -0.93562,-0.012 -8.07724,-3.3345 -15.87025,-7.3842 z M 931,1092.4112 c 0,-0.1952 0.70483,-8.2092 1.56628,-17.809 1.06016,-11.8141 1.46654,-25.442 1.25759,-42.1734 l -0.30871,-24.7191 5.99242,-3.5344 c 8.08156,-4.76649 16.89755,-14.38198 20.81738,-22.70522 3.11629,-6.61705 3.2583,-6.75281 7.67504,-7.3376 18.36127,-2.4311 34.183,-4.9775 43.9013,-7.06561 6.2706,-1.34735 11.5008,-2.3303 11.6226,-2.18433 0.6723,0.80623 -8.5409,23.23695 -14.5519,35.42846 -12.50899,25.3704 -26.88211,45.2893 -47.93514,66.4305 C 947.88882,1079.9446 931,1094.3779 931,1092.4112 Z m -378.19845,-88.435 C 533.80609,967.32931 524,926.84351 524,885.06504 c 0,-34.27775 10.34228,-79.47817 24.64227,-107.69785 2.20195,-4.34533 2.76414,-4.87507 3.72551,-3.51046 0.62272,0.88393 4.8238,6.93606 9.33573,13.44918 8.05173,11.62294 22.16075,29.77514 31.54299,40.58217 l 4.7465,5.46731 -1.9965,7.80624 c -3.58896,14.03271 -1.92907,27.4724 4.93846,39.98541 l 3.99241,7.27436 -5.25607,10.36327 c -15.77895,31.11103 -29.00031,68.3621 -36.15388,101.86333 -1.46804,6.875 -2.98356,13.3227 -3.36782,14.3282 -0.52691,1.3788 -2.3334,-1.3255 -7.34805,-11 z M 958.9295,930.85833 c -8.19315,-14.54475 -24.02676,-24.89852 -41.4179,-27.08362 l -4.9884,-0.62676 -1.90366,-5.5 c -16.94083,-48.945 -41.368,-92.52172 -76.54411,-136.55041 l -4.03496,-5.05041 2.10347,-5.44959 c 1.3448,-3.48409 2.28762,-8.77228 2.61406,-14.66218 l 0.5106,-9.21259 7.1157,-2.94881 c 30.89887,-12.80473 60.2925,-20.14225 106.31179,-26.53854 2.97817,-0.41394 4.03496,0.42295 15.5,12.27479 18.78139,19.41503 31.63626,37.39371 43.86101,61.34349 20.8523,40.85232 30.1149,85.81928 27.109,131.60476 -0.6733,10.25621 -1.6088,19.03224 -2.0789,19.50231 -2.1252,2.12523 -35.27339,9.57307 -54.0872,12.1525 -6.325,0.86717 -12.70461,1.7744 -14.1769,2.01606 -2.37609,0.39001 -3.03837,-0.20231 -5.8936,-5.271 z M 848,931.63151 c -46.22584,-8.85098 -93.80637,-27.04819 -132.07279,-50.51134 -5.18497,-3.17917 -10.69419,-6.49849 -12.24273,-7.37627 -2.48268,-1.40729 -2.74524,-2.00969 -2.22109,-5.09595 2.44096,-14.37271 1.2174,-25.65268 -4.00229,-36.89703 l -2.50533,-5.39703 6.77211,-7.03743 c 10.96573,-11.39534 25.67607,-25.06562 36.95594,-34.34306 l 10.52877,-8.65969 2.64371,1.7144 c 7.64981,4.96076 20.12376,8.56969 29.73374,8.60248 2.79952,0.01 8.609,-0.88264 12.90996,-1.98264 4.30096,-1.1 7.9124,-2 8.02542,-2 0.11303,0 3.81015,4.6125 8.21582,10.25 27.11884,34.70126 48.83817,74.44314 63.34662,115.9112 l 2.33056,6.6612 -3.97652,4.3388 c -2.18708,2.38634 -5.31873,6.4755 -6.95921,9.08701 -3.44344,5.48169 -3.27614,5.45551 -17.48269,2.73535 z M 617.39935,797.39795 C 608.93743,787.38781 597.16174,771.83892 590.23669,761.53174 584.55301,753.0722 574,735.86655 574,735.05941 c 0,-1.75795 13.44229,-17.03477 25.9046,-29.43992 13.87779,-13.81413 27.88347,-25.38256 40.18854,-33.19496 l 5.59313,-3.55105 11.90687,5.2328 c 22.08857,9.70742 40.0978,19.64321 61.24484,33.78908 9.71784,6.50055 10.29493,7.07546 9.62033,9.58398 -1.3843,5.14757 -1.96351,14.72541 -1.24992,20.66861 0.83443,6.94962 2.19553,5.22725 -15.77645,19.96409 -6.01257,4.93025 -19.11315,17.01368 -29.11242,26.85208 l -18.18047,17.88799 -7.24562,-1.22214 c -8.55323,-1.44268 -17.3887,-0.73605 -25.44232,2.0348 -3.17031,1.09075 -6.05976,1.98318 -6.42098,1.98318 -0.36122,0 -3.79508,-3.7125 -7.63078,-8.25 z M 814.32673,689.28044 c -4.38653,-3.67391 -14.66239,-8.49912 -21.56646,-10.12692 -11.56823,-2.72748 -22.80008,-1.55536 -34.87602,3.63957 l -4.93792,2.12424 -10.22317,-7.0009 c -12.55352,-8.59675 -33.05762,-20.90595 -43.93027,-26.37262 -6.02718,-3.0304 -7.75105,-4.31588 -6.70333,-4.99863 0.77574,-0.50551 5.68544,-2.25544 10.91044,-3.88874 64.1134,-20.04139 132.44087,-14.41808 192.75,15.86321 5.6375,2.83059 10.25,5.48686 10.25,5.90281 0,0.41596 -4.8375,1.80038 -10.75,3.07649 -20.72453,4.47305 -44.54262,11.80948 -65.0201,20.02744 -5.64855,2.26686 -10.90153,4.12156 -11.67327,4.12156 -0.77175,0 -2.67521,-1.06538 -4.2299,-2.36751 z"
       style="fill:#000000" />
  </g>
</svg>
